# xmcd
#
# Track frame offsets:
#	150
#	26624
#	52387
#	83277
#	98610
#	123141
#	146436
#	164984
#	186521
#	210459
#	226271
#	247158
#	266238
#	290718
#
# Disc length: 4321 seconds
#
# Revision: 8
# Processed by: cddbd v1.5.1PL2 Copyright (c) Steve Scherf et al.
# Submitted via: EasyCDDAExtractor 9.0.0.1
#
DISCID=d110df0e
DTITLE=LCJ - LCJ for JMJ
DYEAR=1900
DGENRE=Blues
TTITLE0=I
TTITLE1=Believe
TTITLE2=That
TTITLE3=You
TTITLE4=Are
TTITLE5=The
TTITLE6=Exclusive
TTITLE7=And
TTITLE8=Especial
TTITLE9=Person
TTITLE10=In
TTITLE11=My
TTITLE12=Whole
TTITLE13=Life
EXTD=
EXTT0=
EXTT1=
EXTT2=
EXTT3=
EXTT4=
EXTT5=
EXTT6=
EXTT7=
EXTT8=
EXTT9=
EXTT10=
EXTT11=
EXTT12=
EXTT13=
PLAYORDER=
